<?xml version="1.0" standalone="no"?>
<!DOCTYPE svg PUBLIC "-//W3C//DTD SVG 20010904//EN"
 "http://www.w3.org/TR/2001/REC-SVG-20010904/DTD/svg10.dtd">
<svg version="1.0" xmlns="http://www.w3.org/2000/svg"
 width="1004.000000pt" height="1004.000000pt" viewBox="0 0 1004.000000 1004.000000"
 preserveAspectRatio="xMidYMid meet">
<metadata>
Created by potrace 1.14, written by Peter Selinger 2001-2017
</metadata>
<g transform="translate(0.000000,1004.000000) scale(0.100000,-0.100000)"
fill="#000000" stroke="none">
<path d="M4130 9112 c0 -354 6 -412 56 -582 51 -168 150 -352 263 -488 260
-312 607 -490 1009 -518 l102 -7 0 316 c0 267 -3 332 -19 429 -25 144 -58 245
-125 383 -168 343 -465 602 -831 724 -145 48 -218 62 -352 68 l-103 5 0 -330z"/>
<path d="M4745 7131 c2 -4 -12 -6 -32 -4 -20 1 -43 -3 -52 -10 -12 -10 -13 -9
-6 2 7 12 -1 13 -46 6 -30 -4 -61 -7 -69 -7 -63 0 -272 -35 -434 -73 -95 -22
-351 -107 -403 -134 -23 -11 -47 -21 -53 -21 -7 0 -53 -20 -103 -44 -333 -160
-619 -360 -871 -610 -164 -162 -283 -305 -391 -466 -16 -25 -33 -46 -37 -48
-5 -2 -8 -8 -8 -13 0 -6 -16 -35 -35 -65 -19 -30 -35 -57 -35 -61 0 -3 -6 -14
-14 -22 -36 -40 -216 -431 -216 -468 0 -7 -4 -13 -8 -13 -7 0 -13 -15 -48
-135 -93 -315 -144 -643 -144 -930 0 -175 32 -486 64 -628 8 -34 22 -96 31
-137 15 -72 57 -212 75 -255 5 -11 23 -58 40 -105 17 -47 38 -99 46 -117 78
-171 102 -219 147 -296 29 -48 63 -108 77 -132 14 -24 32 -51 41 -62 9 -10 22
-29 29 -42 14 -27 127 -177 157 -209 10 -10 34 -39 53 -63 69 -88 389 -396
424 -408 6 -2 31 -20 56 -40 55 -45 218 -161 226 -161 3 0 18 -8 32 -18 25
-17 76 -46 189 -107 85 -46 311 -144 413 -179 130 -45 403 -116 446 -116 18 0
36 -4 39 -10 3 -5 27 -10 53 -10 26 0 61 -4 79 -9 17 -5 114 -15 216 -21 185
-13 458 -4 597 20 30 5 91 14 135 21 70 10 253 53 340 79 17 5 53 15 80 24 73
21 202 69 268 100 31 14 83 37 115 50 31 14 80 37 107 52 28 15 64 34 80 42
17 9 32 18 35 22 3 3 23 17 45 29 36 22 166 106 190 123 172 128 304 241 425
365 203 207 300 330 453 572 50 78 195 365 221 436 8 22 33 92 56 155 67 183
126 440 155 665 3 28 10 129 14 225 28 632 -125 1228 -453 1768 -100 165 -120
192 -206 281 l-35 36 638 3 637 2 0 84 c0 250 -121 532 -310 725 -147 150
-300 248 -475 304 -178 57 -123 55 -1642 60 -772 2 -1401 1 -1398 -2z m320
-1721 c456 -65 858 -357 1067 -775 55 -109 91 -214 120 -349 32 -146 31 -417
-1 -563 -61 -278 -184 -506 -381 -704 -127 -128 -206 -187 -348 -261 -221
-116 -403 -161 -647 -161 -241 -1 -408 36 -610 133 -392 189 -669 528 -770
941 -195 802 329 1594 1145 1734 91 16 329 18 425 5z"/>
</g>
</svg>
