<svg width="1440" height="302" viewBox="0 0 1440 302" fill="none" xmlns="http://www.w3.org/2000/svg">
<g opacity="0.5">
<path d="M253.797 18.9254C254.205 16.4467 257.769 16.4468 258.177 18.9254L259.44 26.5924L267.107 27.8553C269.586 28.2635 269.586 31.8274 267.107 32.2357L259.44 33.4986L258.177 41.1656C257.769 43.6442 254.205 43.6442 253.797 41.1656L252.534 33.4986L244.867 32.2357C242.388 31.8274 242.388 28.2635 244.867 27.8553L252.534 26.5924L253.797 18.9254Z" fill="#D5E1FF"/>
<path d="M98.0467 18.9254C98.4549 16.4467 102.019 16.4468 102.427 18.9254L103.69 26.5924L111.357 27.8553C113.836 28.2635 113.836 31.8274 111.357 32.2357L103.69 33.4986L102.427 41.1656C102.019 43.6442 98.4549 43.6442 98.0467 41.1656L96.7838 33.4986L89.1168 32.2357C86.6382 31.8274 86.6382 28.2635 89.1168 27.8553L96.7838 26.5924L98.0467 18.9254Z" fill="#D5E1FF"/>
<path d="M98.0467 161.695C98.4549 159.216 102.019 159.216 102.427 161.695L103.69 169.362L111.357 170.625C113.836 171.033 113.836 174.597 111.357 175.005L103.69 176.268L102.427 183.935C102.019 186.414 98.4549 186.414 98.0467 183.935L96.7838 176.268L89.1168 175.005C86.6382 174.597 86.6382 171.033 89.1168 170.625L96.7838 169.362L98.0467 161.695Z" fill="#D5E1FF"/>
<path d="M253.797 161.695C254.205 159.216 257.769 159.216 258.177 161.695L259.44 169.362L267.107 170.625C269.586 171.033 269.586 174.597 267.107 175.005L259.44 176.268L258.177 183.935C257.769 186.414 254.205 186.414 253.797 183.935L252.534 176.268L244.867 175.005C242.388 174.597 242.388 171.033 244.867 170.625L252.534 169.362L253.797 161.695Z" fill="#D5E1FF"/>
<line x1="100.071" y1="-66" x2="100.071" y2="301.117" stroke="#D5E1FF" stroke-width="1.68919"/>
<line x1="255.477" y1="-66" x2="255.477" y2="301.117" stroke="#D5E1FF" stroke-width="1.68919"/>
<line x1="-1.00254" y1="30.0026" x2="361.414" y2="28.9142" stroke="#D5E1FF" stroke-width="1.68919"/>
<line x1="-1.00254" y1="173.021" x2="361.414" y2="171.932" stroke="#D5E1FF" stroke-width="1.68919"/>
<path d="M615.797 18.9254C616.205 16.4467 619.769 16.4468 620.177 18.9254L621.44 26.5924L629.107 27.8553C631.586 28.2635 631.586 31.8274 629.107 32.2357L621.44 33.4986L620.177 41.1656C619.769 43.6442 616.205 43.6442 615.797 41.1656L614.534 33.4986L606.867 32.2357C604.388 31.8274 604.388 28.2635 606.867 27.8553L614.534 26.5924L615.797 18.9254Z" fill="#D5E1FF"/>
<path d="M460.047 18.9254C460.455 16.4467 464.019 16.4468 464.427 18.9254L465.69 26.5924L473.357 27.8553C475.836 28.2635 475.836 31.8274 473.357 32.2357L465.69 33.4986L464.427 41.1656C464.019 43.6442 460.455 43.6442 460.047 41.1656L458.784 33.4986L451.117 32.2357C448.638 31.8274 448.638 28.2635 451.117 27.8553L458.784 26.5924L460.047 18.9254Z" fill="#D5E1FF"/>
<path d="M460.047 161.695C460.455 159.216 464.019 159.216 464.427 161.695L465.69 169.362L473.357 170.625C475.836 171.033 475.836 174.597 473.357 175.005L465.69 176.268L464.427 183.935C464.019 186.414 460.455 186.414 460.047 183.935L458.784 176.268L451.117 175.005C448.638 174.597 448.638 171.033 451.117 170.625L458.784 169.362L460.047 161.695Z" fill="#D5E1FF"/>
<path d="M615.797 161.695C616.205 159.216 619.769 159.216 620.177 161.695L621.44 169.362L629.107 170.625C631.586 171.033 631.586 174.597 629.107 175.005L621.44 176.268L620.177 183.935C619.769 186.414 616.205 186.414 615.797 183.935L614.534 176.268L606.867 175.005C604.388 174.597 604.388 171.033 606.867 170.625L614.534 169.362L615.797 161.695Z" fill="#D5E1FF"/>
<line x1="462.071" y1="-66" x2="462.071" y2="301.117" stroke="#D5E1FF" stroke-width="1.68919"/>
<line x1="617.477" y1="-66" x2="617.477" y2="301.117" stroke="#D5E1FF" stroke-width="1.68919"/>
<line x1="360.997" y1="30.0026" x2="723.414" y2="28.9142" stroke="#D5E1FF" stroke-width="1.68919"/>
<line x1="360.997" y1="173.021" x2="723.414" y2="171.932" stroke="#D5E1FF" stroke-width="1.68919"/>
<path d="M977.797 18.9254C978.205 16.4467 981.769 16.4468 982.177 18.9254L983.44 26.5924L991.107 27.8553C993.586 28.2635 993.586 31.8274 991.107 32.2357L983.44 33.4986L982.177 41.1656C981.769 43.6442 978.205 43.6442 977.797 41.1656L976.534 33.4986L968.867 32.2357C966.388 31.8274 966.388 28.2635 968.867 27.8553L976.534 26.5924L977.797 18.9254Z" fill="#D5E1FF"/>
<path d="M822.047 18.9254C822.455 16.4467 826.019 16.4468 826.427 18.9254L827.69 26.5924L835.357 27.8553C837.836 28.2635 837.836 31.8274 835.357 32.2357L827.69 33.4986L826.427 41.1656C826.019 43.6442 822.455 43.6442 822.047 41.1656L820.784 33.4986L813.117 32.2357C810.638 31.8274 810.638 28.2635 813.117 27.8553L820.784 26.5924L822.047 18.9254Z" fill="#D5E1FF"/>
<path d="M822.047 161.695C822.455 159.216 826.019 159.216 826.427 161.695L827.69 169.362L835.357 170.625C837.836 171.033 837.836 174.597 835.357 175.005L827.69 176.268L826.427 183.935C826.019 186.414 822.455 186.414 822.047 183.935L820.784 176.268L813.117 175.005C810.638 174.597 810.638 171.033 813.117 170.625L820.784 169.362L822.047 161.695Z" fill="#D5E1FF"/>
<path d="M977.797 161.695C978.205 159.216 981.769 159.216 982.177 161.695L983.44 169.362L991.107 170.625C993.586 171.033 993.586 174.597 991.107 175.005L983.44 176.268L982.177 183.935C981.769 186.414 978.205 186.414 977.797 183.935L976.534 176.268L968.867 175.005C966.388 174.597 966.388 171.033 968.867 170.625L976.534 169.362L977.797 161.695Z" fill="#D5E1FF"/>
<line x1="824.071" y1="-66" x2="824.071" y2="301.117" stroke="#D5E1FF" stroke-width="1.68919"/>
<line x1="979.477" y1="-66" x2="979.477" y2="301.117" stroke="#D5E1FF" stroke-width="1.68919"/>
<line x1="722.997" y1="30.0026" x2="1085.41" y2="28.9142" stroke="#D5E1FF" stroke-width="1.68919"/>
<line x1="722.997" y1="173.021" x2="1085.41" y2="171.932" stroke="#D5E1FF" stroke-width="1.68919"/>
<path d="M1320.8 18.9254C1321.2 16.4467 1324.77 16.4468 1325.18 18.9254L1326.44 26.5924L1334.11 27.8553C1336.59 28.2635 1336.59 31.8274 1334.11 32.2357L1326.44 33.4986L1325.18 41.1656C1324.77 43.6442 1321.2 43.6442 1320.8 41.1656L1319.53 33.4986L1311.87 32.2357C1309.39 31.8274 1309.39 28.2635 1311.87 27.8553L1319.53 26.5924L1320.8 18.9254Z" fill="#D5E1FF"/>
<path d="M1165.05 18.9254C1165.45 16.4467 1169.02 16.4468 1169.43 18.9254L1170.69 26.5924L1178.36 27.8553C1180.84 28.2635 1180.84 31.8274 1178.36 32.2357L1170.69 33.4986L1169.43 41.1656C1169.02 43.6442 1165.45 43.6442 1165.05 41.1656L1163.78 33.4986L1156.12 32.2357C1153.64 31.8274 1153.64 28.2635 1156.12 27.8553L1163.78 26.5924L1165.05 18.9254Z" fill="#D5E1FF"/>
<path d="M1165.05 161.695C1165.45 159.216 1169.02 159.216 1169.43 161.695L1170.69 169.362L1178.36 170.625C1180.84 171.033 1180.84 174.597 1178.36 175.005L1170.69 176.268L1169.43 183.935C1169.02 186.414 1165.45 186.414 1165.05 183.935L1163.78 176.268L1156.12 175.005C1153.64 174.597 1153.64 171.033 1156.12 170.625L1163.78 169.362L1165.05 161.695Z" fill="#D5E1FF"/>
<path d="M1320.8 161.695C1321.2 159.216 1324.77 159.216 1325.18 161.695L1326.44 169.362L1334.11 170.625C1336.59 171.033 1336.59 174.597 1334.11 175.005L1326.44 176.268L1325.18 183.935C1324.77 186.414 1321.2 186.414 1320.8 183.935L1319.53 176.268L1311.87 175.005C1309.39 174.597 1309.39 171.033 1311.87 170.625L1319.53 169.362L1320.8 161.695Z" fill="#D5E1FF"/>
<line x1="1167.07" y1="-66" x2="1167.07" y2="301.117" stroke="#D5E1FF" stroke-width="1.68919"/>
<line x1="1322.48" y1="-66" x2="1322.48" y2="301.117" stroke="#D5E1FF" stroke-width="1.68919"/>
<line x1="1066" y1="30.0026" x2="1428.41" y2="28.9142" stroke="#D5E1FF" stroke-width="1.68919"/>
<line x1="1066" y1="173.021" x2="1428.41" y2="171.932" stroke="#D5E1FF" stroke-width="1.68919"/>
</g>
</svg>
