<svg width="34" height="26" viewBox="0 0 34 26" fill="none" xmlns="http://www.w3.org/2000/svg">
<path d="M3.40217 23.7553C1.51383 21.7496 0.5 19.5001 0.5 15.8536C0.5 9.43695 5.0045 3.68578 11.555 0.842285L13.1922 3.36862C7.078 6.67595 5.88267 10.9678 5.406 13.6738C6.3905 13.1641 7.67933 12.9863 8.9425 13.1036C12.2498 13.4098 14.8568 16.125 14.8568 19.5001C14.8568 21.2019 14.1808 22.834 12.9774 24.0374C11.7741 25.2407 10.142 25.9168 8.44017 25.9168C6.473 25.9168 4.592 25.0184 3.40217 23.7553ZM21.7355 23.7553C19.8472 21.7496 18.8333 19.5001 18.8333 15.8536C18.8333 9.43695 23.3378 3.68578 29.8883 0.842285L31.5255 3.36862C25.4113 6.67595 24.216 10.9678 23.7393 13.6738C24.7238 13.1641 26.0127 12.9863 27.2758 13.1036C30.5832 13.4098 33.1902 16.125 33.1902 19.5001C33.1902 21.2019 32.5141 22.834 31.3108 24.0374C30.1074 25.2407 28.4753 25.9168 26.7735 25.9168C24.8063 25.9168 22.9253 25.0184 21.7355 23.7553Z" fill="black"/>
</svg>
